<svg width="255" height="320" viewBox="0 0 255 320" fill="none" xmlns="http://www.w3.org/2000/svg">
<path d="M234.766 150.038H1.44263V162.92H234.766V150.038Z" fill="white"/>
<path d="M234.755 163.464H1.44263C1.29842 163.464 1.16011 163.407 1.05814 163.305C0.956167 163.203 0.89888 163.064 0.89888 162.92V150.038C0.89888 149.894 0.956167 149.756 1.05814 149.654C1.16011 149.552 1.29842 149.495 1.44263 149.495H234.755C234.899 149.495 235.037 149.552 235.139 149.654C235.241 149.756 235.299 149.894 235.299 150.038V162.92C235.299 163.064 235.241 163.203 235.139 163.305C235.037 163.407 234.899 163.464 234.755 163.464ZM2.02987 162.376H234.211V150.572H1.98638L2.02987 162.376Z" fill="#D1D3D4"/>
<path d="M228.099 162.92H8.10899V243.408H228.099V162.92Z" fill="white"/>
<path d="M228.088 243.952H8.109C7.96479 243.952 7.82648 243.895 7.72451 243.793C7.62253 243.691 7.56525 243.553 7.56525 243.408V162.898C7.56525 162.754 7.62253 162.616 7.72451 162.514C7.82648 162.412 7.96479 162.354 8.109 162.354H228.088C228.233 162.354 228.371 162.412 228.473 162.514C228.575 162.616 228.632 162.754 228.632 162.898V243.408C228.632 243.553 228.575 243.691 228.473 243.793C228.371 243.895 228.233 243.952 228.088 243.952ZM8.65275 242.864H227.545V163.442H8.65275V242.864Z" fill="#D1D3D4"/>
<path d="M85.4737 235.434H20.2237C20.0804 235.431 19.9437 235.373 19.8423 235.271C19.741 235.17 19.6828 235.033 19.68 234.89V171.45C19.68 171.306 19.7373 171.167 19.8393 171.065C19.9412 170.963 20.0795 170.906 20.2237 170.906H85.4737C85.618 170.906 85.7563 170.963 85.8582 171.065C85.9602 171.167 86.0175 171.306 86.0175 171.45V234.89C86.0175 235.034 85.9602 235.172 85.8582 235.274C85.7563 235.376 85.618 235.434 85.4737 235.434ZM20.8001 234.346H84.9626V171.994H20.8001V234.346Z" fill="#D1D3D4"/>
<path d="M150.724 235.434H85.4737C85.3304 235.431 85.1937 235.373 85.0923 235.271C84.9909 235.17 84.9328 235.033 84.93 234.89V171.45C84.93 171.306 84.9873 171.167 85.0892 171.065C85.1912 170.963 85.3295 170.906 85.4737 170.906H150.724C150.868 170.906 151.006 170.963 151.108 171.065C151.21 171.167 151.267 171.306 151.267 171.45V234.89C151.265 235.033 151.207 235.17 151.105 235.271C151.004 235.373 150.867 235.431 150.724 235.434V235.434ZM86.0392 234.346H150.202V171.994H86.0392V234.346Z" fill="#D1D3D4"/>
<path d="M215.974 235.434H150.724C150.58 235.434 150.441 235.376 150.339 235.274C150.237 235.172 150.18 235.034 150.18 234.89V171.45C150.18 171.306 150.237 171.167 150.339 171.065C150.441 170.963 150.58 170.906 150.724 170.906H215.974C216.118 170.906 216.256 170.963 216.358 171.065C216.46 171.167 216.518 171.306 216.518 171.45V234.89C216.515 235.033 216.457 235.17 216.355 235.271C216.254 235.373 216.117 235.431 215.974 235.434V235.434ZM151.3 234.346H215.463V171.994H151.3V234.346Z" fill="#D1D3D4"/>
<path d="M93.2711 30.1764C92.9906 29.8176 92.6349 29.5245 92.2291 29.3178C91.8233 29.111 91.3772 28.9956 90.9221 28.9796C90.5215 28.9811 90.1351 29.128 89.8346 29.3931C89.5065 29.7758 89.3051 30.251 89.2583 30.753C89.0111 32.1022 89.0482 33.4881 89.367 34.8221C89.7037 36.1601 90.4673 37.3518 91.542 38.2165C92.7274 39.1304 94.3478 39.3045 94.9568 37.6834C95.3972 36.3986 95.4729 35.0167 95.1753 33.6914C94.8777 32.3661 94.2186 31.1494 93.2711 30.1764Z" fill="white"/>
<path d="M93.2929 39.4568C92.5169 39.428 91.7719 39.1452 91.1722 38.6517C90.0063 37.7085 89.1812 36.4093 88.8232 34.9526C88.4803 33.5483 88.4396 32.0872 88.7036 30.666C88.7652 30.0482 89.0202 29.4657 89.4322 29.0014C89.8367 28.6336 90.3647 28.4316 90.9112 28.4356C91.444 28.4552 91.9667 28.5875 92.4447 28.8237C92.9226 29.06 93.3452 29.395 93.6844 29.8065V29.8065C94.6865 30.8608 95.3791 32.1708 95.686 33.593C95.993 35.0151 95.9024 36.4943 95.4244 37.8684C95.3126 38.2211 95.1166 38.5413 94.8532 38.801C94.5897 39.0607 94.2669 39.2523 93.9127 39.3589C93.7115 39.4197 93.503 39.4526 93.2929 39.4568V39.4568ZM90.9656 29.5236C90.6933 29.5243 90.4292 29.6162 90.2152 29.7847C89.9744 30.0984 89.8341 30.4777 89.8129 30.8727C89.5691 32.145 89.6025 33.455 89.9107 34.7132C90.2079 35.9357 90.8951 37.0281 91.8682 37.8249C92.1076 38.0402 92.3917 38.1997 92.7001 38.2919C93.0085 38.3841 93.3336 38.4067 93.6517 38.358C93.8407 38.2908 94.0111 38.1799 94.1491 38.0343C94.287 37.8887 94.3886 37.7126 94.4456 37.5202C94.8467 36.3282 94.9138 35.049 94.6396 33.8215C94.3655 32.594 93.7606 31.4651 92.8905 30.5572C92.6633 30.256 92.3736 30.0077 92.0413 29.8292C91.709 29.6508 91.3421 29.5465 90.9656 29.5236V29.5236Z" fill="#231F20"/>
<path d="M157.357 244.877C157.575 245.53 164.296 256.257 164.296 256.257C164.296 256.257 171.473 258.259 176.726 253.483L170.908 239.709L157.357 244.877Z" fill="white"/>
<path d="M167.928 257.193C166.656 257.206 165.387 257.053 164.154 256.736C164.024 256.703 163.911 256.622 163.839 256.508C162.251 253.973 157.064 245.628 156.835 244.997C156.793 244.864 156.803 244.72 156.864 244.594C156.925 244.469 157.031 244.371 157.162 244.322L170.712 239.154C170.845 239.107 170.991 239.112 171.12 239.169C171.25 239.225 171.352 239.329 171.408 239.459L177.226 253.233C177.273 253.335 177.285 253.449 177.262 253.559C177.238 253.669 177.18 253.768 177.096 253.842C174.569 256.072 171.296 257.268 167.928 257.193V257.193ZM164.665 255.746C165.753 255.996 171.636 257.073 176.095 253.298L170.658 240.362L158.119 245.225C159.076 246.835 162.414 252.221 164.644 255.79L164.665 255.746Z" fill="#231F20"/>
<path d="M98.5238 255.942L81.3521 268.867C81.5479 273.872 92.2271 272.316 102.091 269.737C111.954 267.159 113.858 265.059 113.858 265.059L113.455 256.475L98.5238 255.942Z" fill="#231F20"/>
<path d="M87.6487 272.697C85.1257 272.697 83.3132 272.283 82.2112 271.456C81.8022 271.164 81.4678 270.779 81.2354 270.333C81.003 269.887 80.879 269.392 80.8736 268.889C80.8668 268.803 80.8822 268.717 80.9184 268.639C80.9546 268.56 81.0104 268.493 81.0802 268.443L98.2519 255.507C98.2993 255.466 98.3547 255.435 98.4145 255.416C98.4744 255.397 98.5375 255.391 98.5999 255.398L113.531 255.931C113.668 255.936 113.798 255.993 113.894 256.09C113.991 256.187 114.048 256.316 114.053 256.453L114.456 265.026C114.459 265.17 114.408 265.31 114.314 265.418C114.227 265.516 112.139 267.692 102.286 270.27C97.521 271.659 92.6071 272.473 87.6487 272.697ZM81.8959 269.161C81.9371 269.451 82.0364 269.729 82.1878 269.98C82.3391 270.23 82.5394 270.447 82.7767 270.619C85.1257 272.348 91.9226 271.87 101.938 269.248C109.975 267.148 112.65 265.353 113.281 264.896L112.922 257.073L98.676 256.562L81.8959 269.161Z" fill="#231F20"/>
<path d="M112.661 241.766L113.488 256.475C113.488 256.475 104.864 260.555 98.5564 255.942L95.4461 238.697L112.661 241.766Z" fill="white"/>
<path d="M105.745 258.694C103.042 258.757 100.391 257.944 98.1866 256.377C98.1287 256.337 98.0796 256.285 98.0422 256.225C98.0048 256.165 97.98 256.099 97.9691 256.029L94.9132 238.774C94.8979 238.687 94.9035 238.599 94.9298 238.515C94.9561 238.431 95.0021 238.355 95.064 238.293C95.126 238.232 95.202 238.185 95.2855 238.159C95.3691 238.133 95.4577 238.127 95.544 238.143L112.661 241.232C112.782 241.252 112.892 241.313 112.973 241.404C113.054 241.495 113.101 241.611 113.107 241.733L113.934 256.442C113.94 256.55 113.915 256.657 113.861 256.75C113.806 256.843 113.726 256.917 113.629 256.965C111.142 258.059 108.462 258.647 105.745 258.694V258.694ZM99.0022 255.626C104.266 259.315 111.28 256.78 112.868 256.127L112.085 242.223L96.1203 239.35L99.0022 255.626Z" fill="#231F20"/>
<path d="M85.278 136.341L133.541 125.798L174.649 244.529C172.122 246.643 169.091 248.066 165.852 248.661C162.612 249.256 159.274 249.002 156.161 247.923L113.444 167.664L115.478 248.859C106.778 253.211 95.457 248.674 95.457 248.674C87.2899 224.63 80.319 136.319 80.319 136.319" fill="#231F20"/>
<path d="M106.55 251.285C102.672 251.242 98.8304 250.528 95.196 249.175C95.1234 249.146 95.0578 249.101 95.0034 249.045C94.9491 248.989 94.9072 248.922 94.8806 248.848C86.7896 225.011 79.797 137.244 79.7209 136.363C79.7093 136.218 79.7555 136.075 79.8494 135.965C79.9432 135.855 80.0769 135.787 80.2211 135.775C80.3653 135.764 80.5082 135.81 80.6183 135.904C80.7285 135.998 80.7968 136.131 80.8084 136.276C80.8845 137.157 87.8227 224.206 95.8376 248.261C97.4471 248.848 107.169 252.112 114.88 248.522L112.857 167.675C112.855 167.554 112.894 167.435 112.967 167.339C113.04 167.242 113.143 167.173 113.259 167.141C113.378 167.11 113.504 167.12 113.617 167.169C113.729 167.219 113.822 167.305 113.879 167.413L156.498 247.488C159.456 248.466 162.611 248.691 165.678 248.142C168.745 247.593 171.626 246.288 174.062 244.344L133.182 126.429L85.3976 136.874C85.3262 136.89 85.2524 136.891 85.1804 136.878C85.1084 136.866 85.0397 136.839 84.9781 136.799C84.9165 136.76 84.8633 136.709 84.8214 136.649C84.7796 136.589 84.75 136.521 84.7342 136.45C84.7185 136.378 84.717 136.304 84.7299 136.232C84.7427 136.16 84.7695 136.092 84.8089 136.03C84.8483 135.968 84.8994 135.915 84.9594 135.873C85.0194 135.831 85.087 135.802 85.1584 135.786L133.422 125.233C133.551 125.206 133.686 125.227 133.801 125.29C133.917 125.354 134.006 125.457 134.052 125.581L175.193 244.355C175.229 244.458 175.232 244.569 175.203 244.674C175.174 244.779 175.113 244.873 175.029 244.942C172.409 247.119 169.272 248.582 165.921 249.192C162.57 249.802 159.119 249.537 155.9 248.424C155.786 248.375 155.691 248.292 155.628 248.185L113.988 169.938L115.924 248.848C115.927 248.951 115.901 249.052 115.849 249.141C115.797 249.23 115.721 249.302 115.63 249.349C112.789 250.675 109.684 251.337 106.55 251.285V251.285Z" fill="#231F20"/>
<path d="M164.296 256.257C164.296 256.257 166.199 264.123 166.96 264.961C167.721 265.799 193.658 270.989 194.974 267.942C196.29 264.896 176.726 253.439 176.726 253.439C176.726 253.439 169.766 257.193 164.296 256.257Z" fill="#231F20"/>
<path d="M191.114 269.465C183.675 269.465 167.482 266.43 166.558 265.353C165.633 264.276 164.089 257.737 163.774 256.388C163.751 256.3 163.751 256.208 163.774 256.121C163.797 256.033 163.842 255.953 163.904 255.887C163.964 255.822 164.039 255.773 164.122 255.744C164.206 255.715 164.296 255.709 164.383 255.724C169.603 256.584 176.41 253.048 176.476 253.004C176.556 252.961 176.646 252.939 176.737 252.939C176.828 252.939 176.917 252.961 176.998 253.004C181.685 255.746 196.877 264.972 195.485 268.182C195.235 268.769 194.55 269.128 193.31 269.324C192.582 269.423 191.848 269.47 191.114 269.465V269.465ZM165.013 256.899C165.905 260.479 166.982 264.189 167.373 264.646C168.57 265.396 189.286 269.509 193.876 268.105C194.11 268.063 194.324 267.944 194.485 267.768C195.018 266.517 188.384 260.957 176.715 254.103C175.421 254.745 169.875 257.334 165.013 256.899V256.899Z" fill="#231F20"/>
<path d="M120.132 35.1702C121.136 32.2828 121.339 29.1772 120.72 26.1835C119.632 21.6902 113.52 16.8922 109.181 17.2078C104.842 17.5233 93.4016 22.8217 92.8688 24.4428C92.3359 26.0639 91.368 38.6844 93.8149 40.2837C96.2618 41.883 118.523 40.4469 120.132 35.1702Z" fill="white"/>
<path d="M98.9479 41.4261C96.2617 41.4261 94.2172 41.1976 93.5104 40.7406C90.585 38.8258 91.8791 25.6831 92.3359 24.2796C92.9775 22.3104 104.744 16.9793 109.127 16.6638C113.749 16.3265 120.002 21.2441 121.231 26.053C121.886 29.1464 121.679 32.3604 120.633 35.3443C120.198 36.7369 118.599 37.9337 115.859 38.9346C111.237 40.6101 103.961 41.4261 98.9479 41.4261ZM109.594 17.73H109.214C104.864 18.0346 93.8801 23.3222 93.3799 24.5951C92.9313 27.1557 92.7274 29.7531 92.7709 32.3524C92.7709 38.4559 93.804 39.6091 94.1194 39.8159C95.6962 40.8385 108.55 40.4034 115.5 37.8901C117.87 37.0306 119.295 36.0188 119.61 34.9852C120.574 32.1869 120.769 29.1811 120.176 26.2815C119.186 22.1907 113.629 17.73 109.594 17.73V17.73Z" fill="#231F20"/>
<path d="M95.6528 16.0001C95.6528 16.0001 93.0862 18.5242 88.7689 16.0001C84.4515 13.476 85.3324 8.47133 86.5939 6.68705C87.8554 4.90277 91.6073 1.44302 95.0764 2.33516C96.7308 2.63956 98.3134 3.25219 99.7417 4.14119C99.7417 4.14119 102.591 2.38955 108.985 2.26988C115.38 2.1502 117.425 5.45764 117.425 5.45764C117.425 5.45764 122.514 3.41225 125.689 6.3389C127.047 7.51011 127.906 9.15622 128.09 10.9402C128.274 12.7241 127.769 14.511 126.679 15.9348C124.689 18.274 116.609 17.6756 116.609 17.6756L95.6528 16.0001Z" fill="white"/>
<path d="M118.925 18.2305C117.729 18.2305 116.805 18.1652 116.544 18.1543L95.8811 16.555C95.1525 17.1316 92.5208 18.7962 88.5405 16.4244C87.7145 15.9486 86.9974 15.3048 86.4355 14.5346C85.8735 13.7644 85.4792 12.8849 85.278 11.9528C84.8592 10.0285 85.1898 8.01688 86.2024 6.32802C87.5291 4.42407 91.4768 0.801116 95.2613 1.73677C96.8597 2.07758 98.3988 2.65319 99.8287 3.44489C100.742 2.98794 103.679 1.75853 109.029 1.66061C114.38 1.5627 116.913 3.83656 117.675 4.73958C118.98 4.30439 123.221 3.20554 126.114 5.82755C127.573 7.09266 128.497 8.86514 128.699 10.7861C128.9 12.7071 128.365 14.6331 127.201 16.1742C125.613 17.9258 121.579 18.2305 118.925 18.2305ZM95.6528 15.4561L116.576 17.0663C118.751 17.2295 124.711 17.2622 126.19 15.5214C127.179 14.2005 127.631 12.5538 127.456 10.9126C127.28 9.27144 126.49 7.75774 125.244 6.67617C122.351 4.01064 117.631 5.87107 117.555 5.89283C117.437 5.94249 117.305 5.94782 117.183 5.90785C117.061 5.86788 116.958 5.78529 116.892 5.67524C116.815 5.55556 114.88 2.62891 108.92 2.74859C102.743 2.86826 99.981 4.52199 99.9484 4.54375C99.8574 4.60692 99.7492 4.64077 99.6384 4.64077C99.5277 4.64077 99.4195 4.60692 99.3285 4.54375C97.9533 3.71833 96.4443 3.14022 94.8698 2.83562C91.6073 2.03052 88.1055 5.35973 86.9745 6.99169C86.1293 8.42721 85.8538 10.1279 86.2024 11.757C86.3746 12.5498 86.714 13.2966 87.1979 13.9477C87.6817 14.5987 88.2989 15.139 89.0081 15.5323C92.9558 17.8388 95.2613 15.6628 95.2613 15.6628C95.3084 15.6028 95.3676 15.5534 95.435 15.5178C95.5025 15.4822 95.5767 15.4612 95.6528 15.4561V15.4561Z" fill="#231F20"/>
<path d="M99.9375 47.6166L97.9582 58.1482C97.9582 58.1482 101.351 64.7631 108.289 62.9462C115.228 61.1293 116.304 55.7764 116.304 55.7656L116.772 44.4833L117.055 37.542C117.19 36.8249 117.22 36.0917 117.142 35.366C116.902 34.648 116.054 34.1366 115.619 33.5491C114.967 32.68 114.399 31.7511 113.923 30.7748C112.912 28.8421 112.18 26.7763 111.748 24.6386C109.107 24.8355 106.485 24.0618 104.374 22.4627C103.613 23.79 105.962 25.0629 105.81 26.5752C103.276 26.1727 100.014 25.3458 98.1975 23.4963C97.3057 23.3983 93.8475 29.5998 93.3799 32.0586C92.6956 35.2571 92.6071 38.5545 93.1189 41.7851C94.1737 47.2141 99.9375 47.6166 99.9375 47.6166Z" fill="white"/>
<path d="M105.94 63.8057C100.318 63.8057 97.5015 58.4637 97.4797 58.3658C97.4424 58.2528 97.4424 58.1307 97.4797 58.0176L99.3502 48.0409C97.7625 47.7689 93.5104 46.583 92.6947 41.9156C92.1713 38.6166 92.2598 35.2494 92.9557 31.9824C93.5008 30.0806 94.2788 28.2534 95.2721 26.5426C97.3492 22.8326 98.067 22.9196 98.3606 22.9414C98.4897 22.9588 98.6088 23.0203 98.6977 23.1154C99.9157 24.3884 102.112 25.2914 105.223 25.9007C105.049 25.5569 104.845 25.2293 104.614 24.9215C104.07 24.149 103.396 23.2025 103.972 22.1907C104.011 22.1216 104.064 22.0615 104.128 22.0146C104.191 21.9677 104.264 21.935 104.342 21.9187C104.418 21.9068 104.496 21.9103 104.57 21.929C104.645 21.9477 104.715 21.9812 104.777 22.0275C106.791 23.5267 109.277 24.2491 111.78 24.062C111.915 24.0486 112.049 24.0857 112.158 24.1662C112.267 24.2466 112.341 24.3646 112.368 24.4972C112.778 26.5853 113.485 28.604 114.466 30.4919C114.933 31.4346 115.483 32.3339 116.109 33.1792C116.276 33.3774 116.458 33.5629 116.652 33.7341C117.117 34.1172 117.489 34.6007 117.74 35.1484C117.865 35.7293 117.865 36.3301 117.74 36.911C117.74 37.1285 117.685 37.3353 117.685 37.4876L116.935 55.7111C116.935 55.7873 115.848 61.4774 108.518 63.3922C107.681 63.6433 106.814 63.7823 105.94 63.8057V63.8057ZM98.5237 58.0938C99.0892 59.073 102.243 64.0015 108.159 62.4457C114.684 60.7376 115.771 55.7438 115.771 55.7003L116.511 37.5529C116.52 37.327 116.542 37.1018 116.576 36.8783C116.662 36.4633 116.68 36.0371 116.631 35.6163C116.441 35.2355 116.17 34.9011 115.837 34.6371C115.606 34.4289 115.392 34.2034 115.195 33.9625C114.523 33.064 113.933 32.1063 113.433 31.1012C112.479 29.2613 111.77 27.3045 111.324 25.2805C109.065 25.3588 106.833 24.7684 104.907 23.5833C105.061 23.868 105.235 24.1408 105.429 24.3993C106.015 25.0382 106.345 25.8713 106.354 26.7384C106.348 26.8113 106.326 26.882 106.291 26.9458C106.255 27.0096 106.206 27.065 106.147 27.1083C106.09 27.1546 106.023 27.1882 105.952 27.207C105.881 27.2257 105.807 27.2292 105.734 27.2171C102.221 26.6514 99.6765 25.6613 98.1214 24.2578C96.2581 26.6532 94.8433 29.366 93.9454 32.2653C93.2753 35.3996 93.1905 38.6308 93.6952 41.796C94.5544 46.7027 99.9049 47.1053 99.9592 47.1053C100.035 47.1116 100.109 47.1332 100.176 47.1687C100.243 47.2042 100.303 47.253 100.351 47.312C100.398 47.3728 100.432 47.4434 100.448 47.5186C100.465 47.5938 100.465 47.6719 100.449 47.7472L98.5237 58.0938Z" fill="#231F20"/>
<path d="M98.9044 53.1544C100.11 53.3622 101.349 53.2726 102.512 52.8934C103.676 52.5143 104.729 51.857 105.582 50.9785C108.594 47.9648 108.3 45.5386 108.3 45.5386C105.887 47.291 102.893 48.0468 99.9375 47.6493L98.9044 53.1544Z" fill="#231F20"/>
<path d="M100.177 53.8181C99.7051 53.8292 99.2338 53.7817 98.7739 53.6767C98.6397 53.6454 98.5228 53.5633 98.4478 53.4477C98.3727 53.3321 98.3454 53.1919 98.3715 53.0565L99.4046 47.5187C99.436 47.3802 99.5182 47.2586 99.6351 47.178C99.7519 47.0974 99.8948 47.0636 100.035 47.0835C102.84 47.45 105.678 46.7342 107.974 45.0817C108.049 45.02 108.139 44.9798 108.234 44.9653C108.33 44.9509 108.428 44.9627 108.517 44.9996C108.606 45.0365 108.684 45.0971 108.742 45.1748C108.799 45.2525 108.835 45.3444 108.844 45.4407C108.844 45.5495 109.127 48.215 105.962 51.3919C105.209 52.1622 104.308 52.7738 103.315 53.1905C102.321 53.6072 101.254 53.8206 100.177 53.8181ZM99.5351 52.7301C100.574 52.8251 101.62 52.6869 102.599 52.3255C103.577 51.9641 104.462 51.3887 105.19 50.6412C106.37 49.552 107.222 48.1536 107.648 46.6048C105.466 47.9287 102.912 48.5054 100.372 48.2477L99.5351 52.7301Z" fill="#231F20"/>
<path d="M105.255 30.3178C105.255 30.3178 101.514 35.7577 102.363 36.6716C103.211 37.5855 105.625 37.0524 105.625 37.0524" fill="white"/>
<path d="M104.135 37.7705C103.741 37.8049 103.344 37.7569 102.97 37.6296C102.595 37.5022 102.252 37.2982 101.96 37.0306C101.014 35.9427 103.048 32.6787 104.809 30.0023C104.893 29.8866 105.018 29.8081 105.158 29.7837C105.298 29.7593 105.443 29.7909 105.56 29.8718C105.619 29.9111 105.67 29.962 105.709 30.0213C105.749 30.0807 105.776 30.1473 105.789 30.2173C105.802 30.2873 105.801 30.3592 105.786 30.4288C105.771 30.4984 105.742 30.5642 105.701 30.6225C103.95 33.1466 102.591 35.8121 102.787 36.3452C103.254 36.8566 104.831 36.6825 105.527 36.5193C105.667 36.4866 105.814 36.5105 105.936 36.586C106.059 36.6614 106.146 36.7821 106.18 36.9218C106.198 36.9904 106.202 37.0619 106.192 37.1321C106.181 37.2022 106.157 37.2697 106.121 37.3305C106.085 37.3913 106.036 37.4442 105.979 37.4861C105.922 37.528 105.857 37.5581 105.788 37.5746C105.246 37.6981 104.692 37.7637 104.135 37.7705V37.7705Z" fill="#231F20"/>
<path d="M109.744 31.278C110.241 31.2437 110.605 30.6474 110.557 29.946C110.509 29.2446 110.066 28.7039 109.569 28.7381C109.072 28.7724 108.708 29.3687 108.756 30.0701C108.804 30.7715 109.246 31.3122 109.744 31.278Z" fill="#231F20"/>
<path d="M101.987 30.1196C102.148 29.4351 101.884 28.788 101.399 28.6742C100.914 28.5604 100.39 29.023 100.23 29.7075C100.069 30.392 100.333 31.0391 100.818 31.1529C101.304 31.2667 101.827 30.8041 101.987 30.1196Z" fill="#231F20"/>
<path d="M103.385 45.1578C102.89 45.1776 102.398 45.0907 101.94 44.903C101.482 44.7152 101.07 44.4311 100.731 44.0698C99.111 42.1332 99.7526 38.9237 99.7853 38.7823C99.8106 38.6604 99.8778 38.5513 99.9751 38.4738C100.072 38.3963 100.194 38.3554 100.318 38.358V38.358C108.648 38.5864 108.692 38.6408 108.898 38.8911C108.947 38.9495 108.983 39.0175 109.003 39.0906C109.024 39.1636 109.029 39.2402 109.018 39.3154V39.3154C108.83 40.5919 108.346 41.8067 107.604 42.8622C107.142 43.5232 106.536 44.0704 105.831 44.4624C105.127 44.8545 104.342 45.0811 103.537 45.1252L103.385 45.1578ZM100.775 39.4677C100.536 40.8183 100.815 42.2095 101.558 43.3626C101.81 43.6137 102.114 43.8069 102.448 43.929C102.782 44.0511 103.139 44.0992 103.494 44.0698C104.139 44.0337 104.769 43.8514 105.334 43.5367C105.899 43.2219 106.385 42.783 106.756 42.2529C107.287 41.4947 107.657 40.6357 107.844 39.7288C106.549 39.6527 103.189 39.533 100.775 39.4677V39.4677Z" fill="#231F20"/>
<path d="M107.224 42.5793C105.375 45.0925 102.308 45.0381 101.199 43.7326C101.436 43.2094 101.79 42.7473 102.233 42.3815C102.676 42.0158 103.196 41.756 103.755 41.6219C104.987 41.5262 106.215 41.8649 107.224 42.5793V42.5793Z" fill="#231F20"/>
<path d="M103.385 45.1578C102.891 45.1748 102.399 45.0866 101.941 44.899C101.484 44.7114 101.071 44.4288 100.731 44.0698C100.663 43.9831 100.621 43.8781 100.611 43.7679C100.602 43.6577 100.624 43.5471 100.677 43.4497C100.944 42.8482 101.351 42.3192 101.863 41.9067C102.376 41.4942 102.98 41.21 103.624 41.0779C104.995 40.9777 106.358 41.3628 107.474 42.1659C107.594 42.2513 107.676 42.3801 107.702 42.5249C107.717 42.5968 107.715 42.6709 107.698 42.7423C107.681 42.8136 107.649 42.8805 107.604 42.9383C107.141 43.5982 106.535 44.1446 105.83 44.5365C105.126 44.9284 104.342 45.1557 103.537 45.2013L103.385 45.1578ZM101.841 43.6346C102.332 43.9509 102.91 44.1033 103.494 44.0698C104.587 44.0126 105.614 43.5281 106.354 42.7207C105.57 42.2713 104.665 42.0774 103.766 42.1659C103.36 42.2617 102.978 42.442 102.647 42.6951C102.315 42.9481 102.04 43.2683 101.841 43.6346V43.6346Z" fill="#231F20"/>
<path d="M114.836 34.9961C114.717 32.7114 117.011 29.5563 119.523 30.9489C119.957 31.2271 120.33 31.5903 120.62 32.0167C120.909 32.443 121.11 32.9236 121.209 33.4295C122.416 38.1513 118.751 39.8267 116.272 41.0453" fill="white"/>
<path d="M116.294 41.5022C116.191 41.5068 116.089 41.4815 116 41.4294C115.911 41.3773 115.839 41.3005 115.793 41.2085C115.759 41.1481 115.738 41.0815 115.731 41.0127C115.724 40.944 115.73 40.8744 115.751 40.8083C115.771 40.7422 115.805 40.6809 115.849 40.6281C115.894 40.5754 115.949 40.5322 116.011 40.5013C118.599 39.2827 121.731 37.8031 120.644 33.56C120.569 33.1199 120.405 32.6997 120.162 32.3254C119.919 31.9511 119.602 31.6308 119.23 31.3841C118.908 31.1937 118.538 31.0997 118.164 31.1132C117.79 31.1267 117.428 31.2471 117.12 31.4602C116.568 31.8536 116.118 32.3745 115.809 32.9786C115.501 33.5828 115.342 34.2524 115.347 34.9309C115.352 35.0018 115.342 35.0728 115.319 35.1399C115.295 35.207 115.258 35.2687 115.211 35.3214C115.163 35.3741 115.106 35.4167 115.041 35.4468C114.977 35.4769 114.907 35.4938 114.836 35.4966C114.765 35.5043 114.692 35.4967 114.624 35.4745C114.555 35.4522 114.493 35.4158 114.439 35.3675C114.386 35.3192 114.343 35.2602 114.314 35.1944C114.285 35.1285 114.27 35.0572 114.271 34.9852C114.253 34.1134 114.451 33.2506 114.847 32.4741C115.244 31.6976 115.827 31.0315 116.544 30.5354C117.013 30.22 117.562 30.0425 118.127 30.0233C118.692 30.0041 119.251 30.1438 119.741 30.4266C120.244 30.7361 120.677 31.1462 121.014 31.6311C121.351 32.116 121.584 32.6652 121.698 33.2445C123.003 38.3688 118.958 40.2728 116.544 41.4043C116.471 41.4591 116.384 41.493 116.294 41.5022Z" fill="#231F20"/>
<path d="M94.0867 13.6936C94.0867 13.6936 92.7817 22.2777 92.8687 24.4428C96.161 22.4715 99.908 21.3882 103.744 21.2985C109.714 21.2985 118.251 24.8562 120.73 26.1835L118.969 12.8232C118.969 12.8232 114.847 10.5494 105.919 11.4415C96.9904 12.3336 94.0867 13.6936 94.0867 13.6936Z" fill="white"/>
<path d="M120.72 26.7275C120.629 26.7267 120.539 26.7043 120.459 26.6623C118.175 25.4328 109.584 21.8752 103.733 21.8425H103.657C99.9547 21.946 96.3412 22.9987 93.1624 24.8997C93.0818 24.9516 92.989 24.9812 92.8934 24.9856C92.7977 24.99 92.7026 24.9691 92.6176 24.9249C92.5327 24.8808 92.4608 24.8149 92.4095 24.7341C92.3581 24.6532 92.3289 24.5603 92.325 24.4645C92.238 22.2886 93.4995 13.9656 93.5539 13.5848C93.5676 13.4964 93.6024 13.4127 93.6554 13.3407C93.7085 13.2687 93.7781 13.2106 93.8584 13.1714C93.978 13.117 96.9251 11.757 105.821 10.8649C114.717 9.97273 119.045 12.2466 119.186 12.3989C119.26 12.4421 119.324 12.5019 119.371 12.5736C119.418 12.6454 119.448 12.7271 119.458 12.8123L121.231 26.1618C121.242 26.2624 121.226 26.3642 121.184 26.4563C121.142 26.5483 121.075 26.6271 120.992 26.684C120.907 26.7231 120.813 26.7382 120.72 26.7275V26.7275ZM103.657 20.7546H103.744C109.268 20.7546 116.794 23.6921 120.056 25.237L118.468 13.1823C117.479 12.7471 113.433 11.2348 105.973 11.9855C98.7086 12.7144 95.4788 13.748 94.5979 14.0853C94.3913 15.4344 93.5974 20.8851 93.4451 23.4854C96.5805 21.7681 100.083 20.8314 103.657 20.7546V20.7546Z" fill="#231F20"/>
<path d="M93.978 9.0262C93.978 9.0262 95.1198 14.9556 99.6547 15.0753C104.19 15.195 109.442 12.0181 109.442 12.0181C109.442 12.0181 118.914 16.4897 122.982 11.3001" fill="white"/>
<path d="M99.9049 15.6628H99.6112C94.6957 15.5323 93.4669 9.43963 93.4125 9.135C93.3989 9.06356 93.3996 8.99015 93.4144 8.91895C93.4291 8.84776 93.4578 8.78018 93.4987 8.72007C93.5396 8.65996 93.5919 8.60849 93.6527 8.56862C93.7135 8.52874 93.7815 8.50123 93.8529 8.48765C93.9243 8.47408 93.9977 8.47471 94.0689 8.48951C94.14 8.50431 94.2076 8.53298 94.2677 8.5739C94.3278 8.61482 94.3792 8.66717 94.4191 8.72797C94.4589 8.78878 94.4864 8.85685 94.5 8.92828C94.5 8.92828 95.5875 14.4334 99.6547 14.5313C104.005 14.6619 109.127 11.5829 109.181 11.5612C109.26 11.5183 109.347 11.4959 109.437 11.4959C109.526 11.4959 109.614 11.5183 109.692 11.5612C109.779 11.5612 118.816 15.7825 122.568 10.9954C122.61 10.9327 122.664 10.8793 122.728 10.8386C122.791 10.798 122.862 10.7709 122.937 10.7592C123.011 10.7475 123.087 10.7513 123.16 10.7705C123.233 10.7897 123.301 10.8239 123.36 10.8707C123.418 10.9176 123.467 10.9762 123.502 11.0428C123.537 11.1095 123.558 11.1827 123.564 11.2578C123.569 11.3329 123.559 11.4084 123.533 11.4793C123.508 11.5503 123.468 11.6152 123.417 11.67C119.48 16.6964 111.106 13.3781 109.486 12.6709C108.398 13.2584 103.961 15.6628 99.9049 15.6628Z" fill="#231F20"/>
<path d="M118.849 50.5977L109.062 52.0556L105.234 56.1355L103.602 51.9468L96.7294 49.7708L96.0225 56.0919L82.7332 63.8818C82.7332 63.8818 75.7298 123.089 78.3832 140.453C78.3832 140.453 125.494 142.172 140.099 133.73C140.099 133.73 130.833 89.9823 132.182 81.8116C133.041 76.0147 133.506 70.1661 133.574 64.3061L119.632 56.2116L118.849 50.5977Z" fill="#E11A1A"/>
<path d="M50.6737 59.1818C50.6737 59.1818 56.1112 51.566 56.5462 49.9449C56.9812 48.3238 56.8072 41.8721 56.2852 41.6437C55.6738 41.6576 55.075 41.8204 54.5406 42.118C54.0062 42.4157 53.5524 42.8391 53.2185 43.3518C52.8631 44.6442 52.6552 45.9727 52.5986 47.312C51.4433 47.2486 50.2986 47.5617 49.3361 48.2041C49.3361 48.2041 47.955 44.3745 47.8789 43.9937C47.8027 43.6129 50.3584 40.5666 50.3584 40.5666C50.8628 40.9477 51.4442 41.2142 52.0621 41.3476C52.68 41.481 53.3196 41.4781 53.9362 41.339C55.7415 40.7515 55.959 40.251 55.1434 39.0978C54.3277 37.9445 47.9115 36.6716 47.9115 36.6716L43.6376 40.9147C43.6376 40.9147 42.996 34.7459 43.6376 33.4186C44.2792 32.0912 45.5299 28.6532 44.8665 27.5653C44.2031 26.4773 42.7785 26.9342 42.0281 28.044C41.2777 29.1537 39.3855 32.8963 39.3094 34.017C39.2332 35.1376 39.3094 40.7406 39.3094 40.7406C39.3094 40.7406 37.1344 35.9209 37.3301 34.9635C37.5259 34.0061 39.8966 29.4583 38.9287 28.4357C37.9609 27.413 33.7522 32.8746 33.3716 34.9635C32.991 37.0524 35.6445 43.0254 35.6445 43.0254C35.6445 43.0254 32.0014 39.9029 32.0014 39.3045C32.0014 38.7061 32.2515 33.7014 31.6642 33.0269C31.077 32.3524 29.5762 32.472 29.337 34.9417C29.0977 37.4114 29.1521 41.0779 29.8916 42.5575C30.6311 44.0372 36.7102 54.4056 37.0039 55.5262C37.2975 56.6468 36.4384 62.5436 36.4384 62.5436L49.2709 63.1203L50.6737 59.1818Z" fill="white"/>
<path d="M49.26 63.6534L36.4275 63.0767C36.352 63.073 36.2781 63.0535 36.2105 63.0195C36.143 62.9855 36.0832 62.9379 36.0351 62.8795C35.987 62.8211 35.9516 62.7534 35.9312 62.6806C35.9107 62.6078 35.9057 62.5315 35.9163 62.4566C36.302 60.2071 36.4912 57.9282 36.4819 55.6459C36.3187 55.004 33.6109 50.206 31.8165 47.0944C30.6311 45.0055 29.6959 43.3518 29.4131 42.7425C28.5757 41.0453 28.5866 37.0742 28.8041 34.8221C28.989 32.8637 29.8916 32.298 30.3919 32.1348C30.6866 32.0363 31.0038 32.0272 31.3037 32.1085C31.6036 32.1898 31.8728 32.3579 32.0775 32.5917C32.469 33.0378 32.7082 34.2563 32.5669 38.7823C32.5669 38.9999 32.5669 39.1522 32.5669 39.2283C33.0836 39.8542 33.651 40.4365 34.2634 40.9691C33.5021 38.9781 32.5995 36.2038 32.8496 34.7894C33.2085 32.8419 36.558 28.2616 38.2871 27.7285C38.474 27.6602 38.6768 27.6485 38.8702 27.695C39.0637 27.7414 39.2391 27.8439 39.3746 27.9896C40.2555 28.947 39.4399 31.1882 38.3741 33.7994C38.1566 34.3325 37.95 34.8329 37.8956 35.0397C38.054 36.0676 38.358 37.0676 38.7982 38.0098C38.7982 36.3887 38.7982 34.5283 38.7982 33.919C38.8852 32.6461 40.8645 28.7947 41.604 27.6849C41.8368 27.3074 42.1549 26.9897 42.5326 26.7573C42.9103 26.525 43.3372 26.3843 43.779 26.3467C44.0815 26.3497 44.3781 26.4315 44.6393 26.5842C44.9006 26.7368 45.1176 26.955 45.2688 27.2171C46.2041 28.7294 44.4532 32.8528 44.0726 33.6035C43.692 34.3542 43.8007 37.3353 43.9856 39.6418L47.4438 36.2147C47.507 36.1553 47.5832 36.1116 47.6663 36.0871C47.7494 36.0625 47.8371 36.0578 47.9224 36.0732C49.4884 36.367 54.6322 37.4441 55.5348 38.7279C55.7415 38.9604 55.8921 39.2373 55.9751 39.5372C56.058 39.8371 56.0711 40.152 56.0133 40.4578C55.9376 40.6848 55.7979 40.885 55.611 41.0344C55.875 40.9715 56.1519 40.9905 56.4048 41.0888C57.5576 41.5784 57.2205 49.118 56.9703 50.0211C56.5136 51.6748 51.7938 58.3332 51.0652 59.3667L49.7167 63.2291C49.6918 63.3374 49.635 63.4358 49.5536 63.5115C49.4721 63.5871 49.3698 63.6366 49.26 63.6534V63.6534ZM37.0365 62.0105L48.8794 62.5436L50.1191 58.986C50.132 58.9385 50.1542 58.8941 50.1844 58.8554C52.3594 55.8308 55.6219 50.9241 55.9807 49.7817C56.3074 47.2518 56.2818 44.6888 55.9046 42.1659C55.0154 42.3599 54.2247 42.8653 53.6752 43.5911C53.335 44.8187 53.1415 46.0823 53.0988 47.3555C53.0899 47.5019 53.0235 47.6388 52.914 47.7363C52.8626 47.7859 52.8008 47.8234 52.733 47.846C52.6653 47.8686 52.5933 47.8757 52.5225 47.8669C51.5097 47.8275 50.51 48.1052 49.6624 48.6611C49.5918 48.7098 49.5116 48.7429 49.4271 48.7579C49.3427 48.7729 49.256 48.7696 49.173 48.7481C49.0912 48.7233 49.0163 48.68 48.9541 48.6215C48.8918 48.563 48.8439 48.4909 48.8141 48.4108C48.4878 47.5078 47.4112 44.505 47.3351 44.1242C47.259 43.7434 47.2155 43.4932 49.9342 40.2402C50.0247 40.1365 50.1505 40.0701 50.2872 40.054C50.4239 40.038 50.5616 40.0733 50.6737 40.1531C51.1106 40.4797 51.6119 40.7097 52.1443 40.8279C52.6768 40.9461 53.2283 40.9497 53.7622 40.8386C54.8497 40.4904 55.0128 40.2728 55.0346 40.1966C55.0563 40.1205 55.0346 39.9899 54.6866 39.4242C54.3386 38.8584 50.9891 37.8575 48.0855 37.2482L44.0073 41.2846C43.935 41.3576 43.8435 41.4086 43.7435 41.4317C43.6434 41.4548 43.5388 41.4491 43.4419 41.4152C43.3457 41.3796 43.2612 41.3181 43.1978 41.2375C43.1345 41.1568 43.0947 41.0601 43.083 40.9582C42.9742 39.8703 42.4631 34.5501 43.1809 33.1575C43.9856 31.5799 44.8665 28.5662 44.4206 27.8481C44.3645 27.7398 44.2805 27.6483 44.1773 27.5833C44.074 27.5183 43.9553 27.482 43.8334 27.4782C43.5605 27.5129 43.2989 27.6081 43.0675 27.7568C42.8361 27.9055 42.6407 28.104 42.4957 28.3377C41.3758 30.1148 40.4946 32.0316 39.8749 34.0387C39.7879 35.1267 39.8749 40.6645 39.8749 40.7189C39.8734 40.8451 39.8298 40.9672 39.751 41.0658C39.6721 41.1644 39.5626 41.2337 39.4399 41.2629C39.3188 41.289 39.1925 41.2731 39.0818 41.2177C38.9711 41.1623 38.8825 41.0708 38.8309 40.9582C38.1457 39.4568 36.558 35.8556 36.8081 34.8329C36.9516 34.3543 37.126 33.8855 37.3301 33.4295C37.7542 32.4068 39.0266 29.2952 38.5372 28.762C37.7542 28.762 34.2634 33.1139 33.9154 35.0288C33.6217 36.6172 35.427 41.1541 36.1556 42.7751C36.2083 42.8891 36.2199 43.0177 36.1886 43.1392C36.1573 43.2608 36.085 43.3677 35.9839 43.442C35.8828 43.5163 35.7591 43.5533 35.6338 43.5468C35.5085 43.5402 35.3893 43.4906 35.2965 43.4062C31.4685 40.1422 31.4685 39.5003 31.4685 39.2719C31.4685 39.0434 31.4685 39.0216 31.4685 38.7932C31.599 34.5609 31.3815 33.56 31.2401 33.3533C31.1762 33.2817 31.0923 33.2309 30.9992 33.2077C30.9061 33.1844 30.8082 33.1896 30.7181 33.2227C30.2831 33.3642 29.9677 34.017 29.8807 34.9744C29.6306 37.542 29.7285 40.9909 30.381 42.3182C30.642 42.8513 31.6207 44.5703 32.7517 46.5613C35.427 51.2722 37.3301 54.6558 37.5259 55.3848C37.7651 56.3857 37.2757 60.335 37.0365 62.0105ZM48.4335 43.9502C48.564 44.3962 49.086 45.8759 49.608 47.3446C50.3681 46.971 51.1977 46.7598 52.044 46.7245C52.1055 45.492 52.3173 44.2717 52.6747 43.0907C52.9217 42.6031 53.2979 42.1928 53.7622 41.9048C52.6303 42.0843 51.4717 41.8486 50.4997 41.2411C49.7484 42.0946 49.0579 42.9998 48.4335 43.9502Z" fill="#231F20"/>
<path d="M41.3539 46.8659C42.3685 47.7744 43.1667 48.8988 43.6899 50.1565C44.2131 51.4142 44.4479 52.7732 44.3771 54.1336C45.409 51.7112 47.1297 49.6455 49.3252 48.1933" fill="white"/>
<path d="M44.3771 54.6776H44.2466C44.1202 54.6468 44.0089 54.5718 43.9331 54.4659C43.8573 54.3601 43.8219 54.2306 43.8334 54.101C43.8876 52.8297 43.6625 51.5619 43.1739 50.3871C42.6854 49.2123 41.9453 48.1589 41.0059 47.3011C40.9421 47.2587 40.8879 47.2033 40.847 47.1385C40.8061 47.0737 40.7794 47.001 40.7685 46.9251C40.7577 46.8493 40.763 46.772 40.784 46.6983C40.8051 46.6246 40.8415 46.5563 40.8909 46.4976C40.9402 46.439 41.0014 46.3915 41.0704 46.3582C41.1393 46.3249 41.2146 46.3065 41.2911 46.3043C41.3677 46.3021 41.4439 46.3161 41.5146 46.3454C41.5854 46.3747 41.6492 46.4186 41.7019 46.4743C43.3349 47.938 44.4396 49.8998 44.8447 52.0556C45.9116 50.3137 47.3484 48.8279 49.0534 47.7037C49.1773 47.633 49.3239 47.6139 49.4617 47.6504C49.5996 47.6869 49.7176 47.7761 49.7903 47.8988C49.863 48.0215 49.8847 48.1679 49.8506 48.3064C49.8165 48.4449 49.7294 48.5645 49.608 48.6393C47.5146 50.0341 45.8712 52.0071 44.8774 54.3185C44.8414 54.4228 44.7739 54.5133 44.6843 54.5777C44.5947 54.642 44.4874 54.6769 44.3771 54.6776Z" fill="#231F20"/>
<path d="M34.644 43.6891C34.644 43.6891 39.1462 41.0997 41.9085 40.9691Z" fill="white"/>
<path d="M34.644 44.233C34.5253 44.2318 34.4103 44.1918 34.3165 44.1191C34.2227 44.0464 34.1552 43.9449 34.1244 43.8303C34.0936 43.7156 34.1011 43.5941 34.1459 43.4841C34.1906 43.3741 34.27 43.2818 34.3721 43.2212C34.5678 43.1124 39.0157 40.5666 41.8759 40.4251C41.9473 40.4215 42.0187 40.4321 42.086 40.4561C42.1534 40.4802 42.2153 40.5172 42.2683 40.5652C42.3213 40.6132 42.3644 40.6712 42.395 40.7358C42.4256 40.8004 42.4432 40.8705 42.4468 40.9419C42.4504 41.0133 42.4398 41.0848 42.4158 41.1522C42.3918 41.2195 42.3547 41.2815 42.3068 41.3345C42.2588 41.3876 42.2009 41.4306 42.1363 41.4613C42.0717 41.4919 42.0017 41.5095 41.9302 41.5131C39.3311 41.6437 34.9593 44.146 34.9158 44.1786C34.8309 44.2182 34.7376 44.2369 34.644 44.233Z" fill="#231F20"/>
<path d="M166.395 52.7192C166.773 51.2348 166.887 49.6955 166.732 48.1715C166.405 46.1152 166.851 41.7633 166.297 40.1966C165.742 38.63 159.88 34.104 160.294 33.2336C160.693 32.7102 161.252 32.3313 161.886 32.1546C162.52 31.9779 163.194 32.0129 163.806 32.2544C165.068 32.8311 169.907 37.7922 169.907 37.7922L182.261 30.7639L191.907 30.1329C191.907 30.1329 183.501 41.2302 182.587 43.0798C181.674 44.9293 180.162 49.1724 178.542 50.2278C177.713 50.7851 176.827 51.252 175.899 51.6204L174.333 55.0149L166.395 52.7192Z" fill="white"/>
<path d="M174.333 55.5588H174.181L166.242 53.2523C166.106 53.2117 165.99 53.1202 165.919 52.9966C165.849 52.8731 165.828 52.727 165.862 52.5887C166.227 51.1688 166.337 49.6953 166.188 48.2368C166.06 47.03 166.016 45.8158 166.058 44.6029C166.138 43.1828 166.047 41.7581 165.786 40.3598C164.929 39.1513 163.924 38.0548 162.795 37.0959C160.294 34.6697 159.446 33.7558 159.804 33.016C160.263 32.3588 160.933 31.8778 161.702 31.6523C162.471 31.4268 163.294 31.4703 164.035 31.7757C165.209 32.3088 168.863 35.9644 170.005 37.1177L181.968 30.2961C182.038 30.2581 182.116 30.2358 182.196 30.2308L191.853 29.5998C191.957 29.5934 192.06 29.6169 192.151 29.6675C192.242 29.7181 192.316 29.7936 192.365 29.8852C192.415 29.9768 192.436 30.0806 192.429 30.1842C192.421 30.2879 192.383 30.3871 192.321 30.4702C189.428 34.2998 183.762 41.9048 183.055 43.33C182.849 43.7543 182.609 44.2983 182.348 44.8967C181.391 47.0726 180.173 49.7926 178.814 50.6956C178.01 51.2218 177.163 51.6768 176.28 52.0556L174.801 55.2542C174.76 55.344 174.694 55.4204 174.611 55.4743C174.529 55.5282 174.432 55.5575 174.333 55.5588ZM167.036 52.2949L174.04 54.3185L175.41 51.3484C175.439 51.2814 175.483 51.2215 175.537 51.1727C175.591 51.1239 175.656 51.0874 175.725 51.0655C176.611 50.71 177.457 50.2614 178.248 49.7273C179.336 49.0092 180.576 46.2349 181.37 44.4071C181.641 43.787 181.892 43.2321 182.098 42.7969C182.881 41.2302 188.699 33.4512 190.798 30.7095L182.446 31.2535L170.212 38.2165C170.108 38.2754 169.989 38.2987 169.871 38.283C169.753 38.2673 169.644 38.2134 169.559 38.1295C167.711 36.2364 164.47 33.0922 163.611 32.6896C163.142 32.5194 162.635 32.4873 162.149 32.5973C161.664 32.7072 161.22 32.9545 160.87 33.3098C161.66 34.4069 162.56 35.4204 163.556 36.3343C165.329 38.0533 166.514 39.2392 166.819 40.0443C167.14 41.5595 167.254 43.1115 167.156 44.6573C167.117 45.812 167.157 46.9679 167.276 48.1171C167.432 49.5277 167.352 50.9546 167.036 52.3384V52.2949Z" fill="#231F20"/>
<path d="M174.953 37.085C177.715 37.4186 180.389 38.2673 182.838 39.5874Z" fill="white"/>
<path d="M182.838 40.1314C182.733 40.1311 182.632 40.1009 182.544 40.0443C180.177 38.7777 177.596 37.9589 174.931 37.629C174.787 37.6132 174.655 37.5406 174.564 37.4274C174.474 37.3141 174.432 37.1695 174.448 37.0252C174.463 36.8809 174.536 36.7489 174.649 36.6581C174.762 36.5673 174.907 36.5252 175.051 36.541C177.894 36.8794 180.647 37.7544 183.164 39.1196C183.225 39.1573 183.277 39.2067 183.319 39.2649C183.361 39.3232 183.39 39.389 183.407 39.4588C183.423 39.5285 183.425 39.6008 183.413 39.6714C183.401 39.742 183.376 39.8096 183.338 39.8703C183.285 39.9538 183.21 40.0219 183.123 40.0677C183.035 40.1135 182.937 40.1355 182.838 40.1314V40.1314Z" fill="#231F20"/>
<path d="M177.226 38.0316C177.114 38.0309 177.004 37.9955 176.913 37.9301C176.822 37.8648 176.753 37.7727 176.716 37.6665C176.679 37.5604 176.676 37.4454 176.707 37.3374C176.738 37.2294 176.801 37.1336 176.889 37.0633L185.023 30.4266C185.077 30.3728 185.142 30.3308 185.212 30.3033C185.283 30.2759 185.359 30.2637 185.435 30.2674C185.511 30.2711 185.585 30.2908 185.653 30.325C185.721 30.3593 185.781 30.4074 185.829 30.4663C185.878 30.5251 185.913 30.5935 185.933 30.6668C185.953 30.7402 185.958 30.8169 185.946 30.8922C185.935 30.9674 185.908 31.0394 185.867 31.1035C185.826 31.1676 185.772 31.2224 185.709 31.2644L177.574 37.9119C177.474 37.9881 177.352 38.03 177.226 38.0316V38.0316Z" fill="#231F20"/>
<path d="M180.619 39.0434C180.472 39.043 180.331 38.9843 180.228 38.8802C180.127 38.7767 180.071 38.6382 180.071 38.494C180.071 38.3498 180.127 38.2113 180.228 38.1077L188.145 30.2526C188.247 30.1501 188.386 30.0926 188.531 30.0926C188.675 30.0926 188.814 30.1501 188.917 30.2526C189.019 30.355 189.077 30.4939 189.077 30.6388C189.077 30.7837 189.019 30.9226 188.917 31.025L181 38.8802C180.899 38.9827 180.763 39.0414 180.619 39.0434Z" fill="#231F20"/>
<path d="M169.907 37.7922C169.907 37.7922 174.138 42.6664 173.257 46.496Z" fill="white"/>
<path d="M173.257 47.0835H173.137C172.997 47.0499 172.877 46.9624 172.801 46.8401C172.726 46.7178 172.702 46.5707 172.735 46.4307C173.539 42.8731 169.538 38.2057 169.472 38.1621C169.372 38.0586 169.316 37.9201 169.316 37.7759C169.316 37.6317 169.372 37.4932 169.472 37.3897C169.522 37.339 169.581 37.2988 169.646 37.2713C169.712 37.2438 169.782 37.2297 169.853 37.2297C169.924 37.2297 169.994 37.2438 170.059 37.2713C170.125 37.2988 170.184 37.339 170.234 37.3897C170.418 37.5964 174.584 42.5249 173.703 46.6157C173.69 46.7318 173.639 46.8404 173.559 46.9249C173.478 47.0094 173.372 47.0652 173.257 47.0835V47.0835Z" fill="#231F20"/>
<path d="M144.982 25.5199C144.982 25.5199 150.669 27.6088 150.93 32.2653L203.576 32.5373C203.881 27.8808 209.59 25.8463 209.59 25.8463L144.982 25.5199Z" fill="white"/>
<path d="M203.565 33.0704L150.93 32.7984C150.792 32.7987 150.658 32.7459 150.557 32.6508C150.456 32.5557 150.395 32.4256 150.387 32.2871C150.147 28.0549 144.84 26.0312 144.786 26.0204C144.667 25.9743 144.569 25.8881 144.507 25.7768C144.446 25.6654 144.425 25.536 144.449 25.4111C144.47 25.2853 144.535 25.1711 144.633 25.0892C144.73 25.0074 144.854 24.9633 144.982 24.965L209.59 25.2914C209.718 25.2897 209.841 25.3338 209.939 25.4156C210.037 25.4975 210.102 25.6116 210.123 25.7375C210.146 25.8638 210.124 25.9942 210.06 26.1058C209.997 26.2173 209.896 26.3026 209.775 26.3467C209.721 26.3467 204.403 28.3269 204.109 32.5591C204.101 32.6976 204.04 32.8277 203.939 32.9228C203.838 33.0179 203.704 33.0707 203.565 33.0704V33.0704ZM151.42 31.7105L203.087 31.9716C203.336 30.7908 203.84 29.6786 204.563 28.7127C205.286 27.7468 206.211 26.9505 207.274 26.3794L147.244 26.0747C148.31 26.6533 149.237 27.4588 149.958 28.4344C150.68 29.41 151.179 30.532 151.42 31.7213V31.7105Z" fill="#231F20"/>
<path d="M82.7007 63.871L51.7613 81.8443L51.87 60.4656L34.47 61.0205C34.47 61.0205 26.2267 94.171 31.2075 102.483C36.1883 110.795 72.0432 99.328 85.5825 87.839L82.7007 63.871Z" fill="#E11A1A"/>
<path d="M133.574 64.2953L153.149 72.999L165.22 49.1724L179.238 52.5343C179.238 52.5343 170.995 93.9969 160.968 93.453C150.941 92.909 114.564 81.6593 114.564 81.6593L133.574 64.2953Z" fill="#E11A1A"/>
<path d="M85.278 136.885C85.1357 136.885 84.999 136.829 84.8973 136.729C84.7956 136.63 84.7371 136.494 84.7343 136.352C84.5711 119.238 87.8662 72.5748 87.8989 72.096C87.9045 72.0094 87.9313 71.9255 87.9768 71.8515C88.0223 71.7776 88.0851 71.7159 88.1599 71.6717L104.603 62.0867V56.1246C104.611 55.9821 104.673 55.848 104.776 55.7492C104.878 55.6503 105.015 55.594 105.157 55.5915C105.228 55.5915 105.299 55.6056 105.364 55.6331C105.429 55.6605 105.489 55.7008 105.538 55.7515C105.588 55.8021 105.627 55.8622 105.653 55.9281C105.679 55.9941 105.692 56.0645 105.69 56.1355V62.4131C105.689 62.5064 105.663 62.5977 105.615 62.6779C105.568 62.7581 105.5 62.8243 105.418 62.87L88.9646 72.466C88.6819 76.4371 85.7021 119.978 85.8218 136.341C85.8218 136.483 85.766 136.62 85.6664 136.722C85.5667 136.823 85.4312 136.882 85.2889 136.885H85.278Z" fill="#231F20"/>
<path d="M96.3053 77.1442C97.4044 77.1442 98.2954 76.2528 98.2954 75.1532C98.2954 74.0536 97.4044 73.1622 96.3053 73.1622C95.2061 73.1622 94.3151 74.0536 94.3151 75.1532C94.3151 76.2528 95.2061 77.1442 96.3053 77.1442Z" fill="#231F20"/>
<path d="M112.139 77.2204C113.238 77.2204 114.129 76.329 114.129 75.2294C114.129 74.1298 113.238 73.2384 112.139 73.2384C111.04 73.2384 110.149 74.1298 110.149 75.2294C110.149 76.329 111.04 77.2204 112.139 77.2204Z" fill="#231F20"/>
<path d="M173.322 58.4637C174.421 58.4637 175.312 57.5723 175.312 56.4727C175.312 55.3731 174.421 54.4818 173.322 54.4818C172.223 54.4818 171.332 55.3731 171.332 56.4727C171.332 57.5723 172.223 58.4637 173.322 58.4637Z" fill="#231F20"/>
<path d="M94.5109 103.005C95.61 103.005 96.501 102.114 96.501 101.014C96.501 99.9148 95.61 99.0234 94.5109 99.0234C93.4117 99.0234 92.5207 99.9148 92.5207 101.014C92.5207 102.114 93.4117 103.005 94.5109 103.005Z" fill="#231F20"/>
<path d="M47.2372 66.939C48.3364 66.939 49.2274 66.0476 49.2274 64.9481C49.2274 63.8485 48.3364 62.9571 47.2372 62.9571C46.1381 62.9571 45.2471 63.8485 45.2471 64.9481C45.2471 66.0476 46.1381 66.939 47.2372 66.939Z" fill="#231F20"/>
<path d="M107.735 103.071C108.834 103.071 109.725 102.179 109.725 101.08C109.725 99.9801 108.834 99.0887 107.735 99.0887C106.636 99.0887 105.745 99.9801 105.745 101.08C105.745 102.179 106.636 103.071 107.735 103.071Z" fill="#231F20"/>
<path d="M92.4011 127.583C93.5002 127.583 94.3913 126.691 94.3913 125.592C94.3913 124.492 93.5002 123.601 92.4011 123.601C91.302 123.601 90.411 124.492 90.411 125.592C90.411 126.691 91.302 127.583 92.4011 127.583Z" fill="#231F20"/>
<path d="M107.909 127.659C109.008 127.659 109.899 126.767 109.899 125.668C109.899 124.568 109.008 123.677 107.909 123.677C106.81 123.677 105.919 124.568 105.919 125.668C105.919 126.767 106.81 127.659 107.909 127.659Z" fill="#231F20"/>
<path d="M77.8613 124.852C77.7207 124.852 77.5856 124.798 77.4843 124.7C77.3829 124.603 77.3231 124.47 77.3175 124.33C76.7738 108.641 81.4065 73.3255 81.45 73.0208C81.4689 72.8781 81.5437 72.7487 81.6579 72.661C81.772 72.5733 81.9163 72.5345 82.059 72.553C82.1302 72.561 82.1991 72.5833 82.2616 72.6185C82.324 72.6537 82.3787 72.7012 82.4223 72.7581C82.466 72.815 82.4977 72.8801 82.5157 72.9495C82.5336 73.019 82.5373 73.0913 82.5266 73.1623C82.5266 73.5104 77.883 108.695 78.3724 124.297C78.3753 124.368 78.3641 124.44 78.3394 124.507C78.3148 124.574 78.2771 124.636 78.2286 124.688C78.1801 124.741 78.1218 124.783 78.0569 124.813C77.992 124.843 77.9218 124.86 77.8504 124.863L77.8613 124.852Z" fill="#231F20"/>
<path d="M160.935 93.997C154.41 93.997 122.177 84.5207 120.807 84.1182C120.662 84.0763 120.541 83.9789 120.468 83.8473C120.396 83.7157 120.379 83.5607 120.421 83.4164C120.462 83.2721 120.56 83.1504 120.691 83.078C120.823 83.0055 120.978 82.9883 121.122 83.0302C121.448 83.1281 154.552 92.822 160.935 92.822C161.08 92.822 161.218 92.8793 161.32 92.9813C161.422 93.0833 161.479 93.2217 161.479 93.3659C161.479 93.5102 161.422 93.6486 161.32 93.7506C161.218 93.8526 161.08 93.9099 160.935 93.9099V93.997Z" fill="#231F20"/>
<path d="M34.035 70.0615C33.8908 70.0615 33.7525 70.0042 33.6505 69.9022C33.5486 69.8002 33.4913 69.6618 33.4913 69.5175C33.4913 69.3733 33.5486 69.2349 33.6505 69.1329C33.7525 69.0309 33.8908 68.9736 34.035 68.9736L49.9669 68.3425C50.1104 68.3395 50.2495 68.3922 50.3549 68.4896C50.4604 68.5869 50.524 68.7214 50.5324 68.8648C50.5328 69.0076 50.4793 69.1452 50.3824 69.2502C50.2856 69.3551 50.1527 69.4195 50.0104 69.4305L34.0568 70.0615H34.035Z" fill="#231F20"/>
<path d="M149.103 81.8225C149.024 81.8375 148.943 81.8375 148.864 81.8225C148.8 81.7914 148.742 81.7475 148.695 81.6936C148.648 81.6397 148.612 81.5769 148.59 81.5089C148.567 81.4409 148.559 81.369 148.565 81.2977C148.571 81.2263 148.591 81.1569 148.625 81.0936L162.436 53.4047C162.468 53.3404 162.511 53.2829 162.565 53.2355C162.619 53.1881 162.681 53.1518 162.749 53.1286C162.816 53.1053 162.888 53.0957 162.959 53.1001C163.031 53.1045 163.1 53.123 163.165 53.1544C163.229 53.1859 163.286 53.2296 163.334 53.2833C163.381 53.3369 163.417 53.3994 163.441 53.4671C163.464 53.5348 163.474 53.6064 163.469 53.6778C163.465 53.7492 163.446 53.8191 163.415 53.8834L149.636 81.5179C149.59 81.6174 149.513 81.7001 149.418 81.7547C149.323 81.8092 149.213 81.8329 149.103 81.8225Z" fill="#231F20"/>
<path d="M175.279 62.6524H175.138L162.762 59.3232C162.618 59.2857 162.495 59.1924 162.419 59.0639C162.344 58.9353 162.322 58.7821 162.36 58.6378C162.397 58.4935 162.491 58.3701 162.619 58.2946C162.748 58.2191 162.901 58.1977 163.045 58.2352L175.421 61.5645C175.565 61.5832 175.696 61.6585 175.785 61.7738C175.873 61.8891 175.913 62.0349 175.894 62.1792C175.875 62.3234 175.8 62.4544 175.685 62.5431C175.569 62.6319 175.424 62.6712 175.279 62.6524Z" fill="#231F20"/>
<path d="M177.922 6.49122C179.52 6.49122 180.815 5.19553 180.815 3.59721C180.815 1.99889 179.52 0.703201 177.922 0.703201C176.324 0.703201 175.029 1.99889 175.029 3.59721C175.029 5.19553 176.324 6.49122 177.922 6.49122Z" fill="white"/>
<path d="M177.911 7.0352C177 7.02738 176.128 6.65984 175.486 6.01251C175.011 5.53119 174.689 4.92041 174.559 4.25662C174.429 3.59283 174.498 2.90551 174.757 2.28071C175.016 1.65591 175.453 1.12137 176.014 0.744009C176.575 0.366648 177.235 0.163227 177.911 0.15921V0.15921C178.821 0.164965 179.691 0.531215 180.331 1.17769C180.971 1.82417 181.329 2.69815 181.326 3.60809V3.60809C181.328 4.05963 181.24 4.50705 181.066 4.92381C180.893 5.34057 180.637 5.71819 180.315 6.03427C179.676 6.67033 178.813 7.02979 177.911 7.0352V7.0352ZM177.911 1.24718C177.291 1.25002 176.697 1.49703 176.257 1.93478C175.818 2.37254 175.568 2.96583 175.562 3.58633C175.558 4.05073 175.692 4.50588 175.947 4.89379C176.203 5.2817 176.568 5.58482 176.996 5.76452C177.424 5.94422 177.895 5.99237 178.351 5.90284C178.807 5.81332 179.225 5.59016 179.553 5.26181C179.992 4.8213 180.239 4.22466 180.239 3.60265C180.239 2.98063 179.992 2.38399 179.553 1.94349C179.338 1.72381 179.08 1.54915 178.797 1.42963C178.513 1.3101 178.208 1.24809 177.9 1.24718H177.911Z" fill="#231F20"/>
<path d="M206.11 25.9442C203.685 13.4869 192.049 4.01063 178.064 3.94535C164.078 3.88007 152.344 13.2258 149.789 25.7048L206.11 25.9442Z" fill="white"/>
<path d="M206.11 26.5426L149.788 26.2597C149.707 26.2581 149.628 26.2387 149.555 26.2029C149.482 26.1671 149.418 26.1157 149.367 26.0524C149.316 25.9892 149.28 25.9155 149.261 25.8366C149.241 25.7578 149.24 25.6757 149.256 25.5961C151.898 12.7471 163.937 3.45578 177.9 3.45578H178.063C192.103 3.52106 204.163 12.9647 206.643 25.8898C206.658 25.9693 206.656 26.0511 206.637 26.1299C206.618 26.2086 206.583 26.2825 206.534 26.3468C206.481 26.4072 206.416 26.4559 206.343 26.4896C206.27 26.5233 206.19 26.5414 206.11 26.5426V26.5426ZM150.463 25.1717L205.447 25.4546C202.75 13.3563 191.309 4.60903 178.053 4.54375H177.911C164.687 4.48936 153.268 13.1061 150.463 25.1173V25.1717Z" fill="#231F20"/>
<path d="M209.611 24.3208L144.993 23.9936L144.98 26.6047L209.598 26.9319L209.611 24.3208Z" fill="white"/>
<path d="M209.59 27.4782L144.971 27.1518C144.828 27.1491 144.691 27.0909 144.589 26.9894C144.488 26.888 144.43 26.7513 144.427 26.6079V23.9967C144.43 23.8533 144.488 23.7166 144.589 23.6151C144.691 23.5137 144.828 23.4555 144.971 23.4527L209.59 23.7791C209.661 23.7783 209.732 23.7923 209.798 23.8204C209.863 23.8485 209.922 23.8901 209.971 23.9423C210.069 24.0445 210.124 24.1812 210.123 24.3231V26.9342C210.123 27.0767 210.067 27.2134 209.968 27.3151C209.868 27.4168 209.732 27.4754 209.59 27.4782ZM145.515 26.0639L209.046 26.3903V24.8671L145.515 24.5407V26.0639Z" fill="#231F20"/>
<path d="M159.04 131.267L177.1 134.368L177.53 131.859L159.47 128.758L159.04 131.267Z" fill="white"/>
<path d="M177.107 134.905H177.009L158.956 131.804C158.811 131.778 158.683 131.696 158.597 131.576C158.556 131.518 158.527 131.452 158.512 131.383C158.497 131.314 158.497 131.243 158.51 131.173L158.934 128.671C158.961 128.529 159.042 128.403 159.159 128.32C159.277 128.236 159.423 128.202 159.565 128.225L177.629 131.325C177.699 131.337 177.767 131.363 177.827 131.403C177.887 131.442 177.938 131.493 177.977 131.554C178.019 131.611 178.05 131.676 178.067 131.745C178.084 131.814 178.086 131.886 178.074 131.956L177.639 134.459C177.617 134.584 177.551 134.697 177.453 134.778C177.356 134.859 177.233 134.904 177.107 134.905V134.905ZM159.706 130.814L176.693 133.73L176.943 132.294L159.946 129.378L159.706 130.814Z" fill="#D1D3D4"/>
<path d="M150.19 130.758L163.92 133.116C165.116 133.321 166.251 132.518 166.457 131.322L166.482 131.172C166.688 129.975 165.885 128.839 164.689 128.634L150.959 126.276C149.763 126.071 148.627 126.874 148.422 128.07L148.396 128.22C148.191 129.417 148.994 130.553 150.19 130.758Z" fill="white"/>
<path d="M164.296 133.686H163.828L150.104 131.325C149.388 131.2 148.751 130.797 148.332 130.204C147.912 129.611 147.744 128.876 147.864 128.159V128.007C147.991 127.293 148.395 126.657 148.987 126.238C149.579 125.818 150.312 125.649 151.028 125.766L164.763 128.127C165.479 128.252 166.116 128.655 166.536 129.248C166.955 129.841 167.124 130.576 167.004 131.293V131.445C166.884 132.076 166.548 132.645 166.054 133.055C165.559 133.464 164.938 133.687 164.296 133.686V133.686ZM150.593 126.778C150.202 126.78 149.825 126.919 149.527 127.172C149.228 127.424 149.028 127.774 148.962 128.159V128.301C148.923 128.515 148.928 128.735 148.974 128.948C149.021 129.161 149.109 129.362 149.234 129.541C149.494 129.9 149.884 130.142 150.321 130.216V130.216L164.046 132.577C164.478 132.649 164.922 132.548 165.28 132.296C165.638 132.043 165.883 131.659 165.96 131.227V131.075C165.999 130.861 165.995 130.641 165.948 130.428C165.901 130.215 165.812 130.013 165.686 129.835C165.561 129.657 165.401 129.505 165.217 129.39C165.032 129.274 164.826 129.196 164.611 129.16L150.876 126.81C150.783 126.788 150.688 126.777 150.593 126.778Z" fill="#D1D3D4"/>
<path d="M169.646 150.038H219.769C221.133 150.038 222.238 148.933 222.238 147.569V145.328C222.238 143.964 221.133 142.858 219.769 142.858H169.646C168.283 142.858 167.178 143.964 167.178 145.328V147.569C167.178 148.933 168.283 150.038 169.646 150.038Z" fill="white"/>
<path d="M219.769 150.572H169.646C168.847 150.572 168.081 150.254 167.516 149.689C166.951 149.124 166.634 148.357 166.634 147.558V145.317C166.634 144.517 166.951 143.751 167.516 143.186C168.081 142.621 168.847 142.303 169.646 142.303H219.769C220.568 142.303 221.334 142.621 221.899 143.186C222.464 143.751 222.781 144.517 222.781 145.317V147.558C222.781 148.357 222.464 149.124 221.899 149.689C221.334 150.254 220.568 150.572 219.769 150.572V150.572ZM169.646 143.391C169.393 143.391 169.143 143.441 168.91 143.538C168.676 143.634 168.464 143.776 168.285 143.955C168.106 144.134 167.965 144.346 167.868 144.58C167.771 144.813 167.721 145.064 167.721 145.317V147.558C167.721 147.811 167.771 148.061 167.868 148.295C167.965 148.528 168.106 148.741 168.285 148.92C168.464 149.098 168.676 149.24 168.91 149.337C169.143 149.434 169.393 149.484 169.646 149.484H219.769C220.022 149.484 220.272 149.434 220.506 149.337C220.739 149.24 220.951 149.098 221.13 148.92C221.309 148.741 221.451 148.528 221.547 148.295C221.644 148.061 221.694 147.811 221.694 147.558V145.317C221.694 144.806 221.491 144.316 221.13 143.955C220.769 143.594 220.28 143.391 219.769 143.391H169.646Z" fill="#D1D3D4"/>
<path d="M211.961 142.814L208.209 137.472H205.958L208.209 142.814H211.961Z" fill="white"/>
<path d="M211.961 143.358H208.209C208.102 143.358 207.997 143.325 207.908 143.265C207.819 143.205 207.75 143.12 207.709 143.021L205.458 137.69C205.415 137.61 205.392 137.52 205.392 137.429C205.392 137.338 205.415 137.248 205.458 137.168C205.508 137.093 205.576 137.032 205.656 136.99C205.736 136.949 205.824 136.927 205.914 136.928H208.165C208.253 136.929 208.338 136.95 208.416 136.989C208.493 137.029 208.56 137.086 208.611 137.157L212.363 142.499C212.414 142.584 212.441 142.682 212.441 142.782C212.441 142.881 212.414 142.979 212.363 143.065C212.324 143.142 212.268 143.209 212.198 143.26C212.128 143.311 212.046 143.345 211.961 143.358ZM208.568 142.27H210.906L207.926 138.016H206.773L208.568 142.27Z" fill="#D1D3D4"/>
<path d="M176.878 142.858L179.967 138.462H181.826L179.967 142.858H176.878Z" fill="white"/>
<path d="M179.967 143.402H176.878C176.779 143.401 176.682 143.373 176.598 143.322C176.514 143.27 176.445 143.196 176.4 143.108C176.349 143.022 176.322 142.925 176.322 142.825C176.322 142.726 176.349 142.628 176.4 142.542L179.488 138.19C179.539 138.12 179.606 138.063 179.684 138.023C179.761 137.983 179.847 137.962 179.934 137.962H181.783C181.873 137.961 181.962 137.982 182.041 138.024C182.121 138.066 182.189 138.127 182.239 138.201C182.288 138.276 182.319 138.362 182.328 138.45C182.338 138.539 182.326 138.629 182.294 138.713L180.434 143.065C180.396 143.159 180.331 143.241 180.249 143.3C180.166 143.36 180.068 143.395 179.967 143.402ZM177.922 142.314H179.608L181 139.05H180.249L177.922 142.314Z" fill="#D1D3D4"/>
<path d="M193.288 142.858H195.54V138.462H193.288V142.858Z" fill="white"/>
<path d="M195.54 143.402H193.299C193.155 143.402 193.017 143.345 192.915 143.243C192.813 143.14 192.756 143.002 192.756 142.858V138.506C192.756 138.362 192.813 138.223 192.915 138.121C193.017 138.019 193.155 137.962 193.299 137.962H195.54C195.684 137.962 195.822 138.019 195.924 138.121C196.026 138.223 196.083 138.362 196.083 138.506V142.858C196.083 143.002 196.026 143.14 195.924 143.243C195.822 143.345 195.684 143.402 195.54 143.402ZM193.843 142.314H194.996V139.05H193.843V142.314Z" fill="#D1D3D4"/>
<path d="M212.015 138.462H176.911C176.447 138.462 175.987 138.371 175.558 138.193C175.129 138.016 174.74 137.755 174.411 137.427C174.083 137.098 173.823 136.709 173.645 136.28C173.468 135.851 173.376 135.391 173.376 134.927V128.91H215.506V134.927C215.506 135.391 215.415 135.851 215.237 136.28C215.059 136.709 214.799 137.098 214.471 137.427C214.143 137.755 213.753 138.016 213.324 138.193C212.895 138.371 212.436 138.462 211.972 138.462H212.015Z" fill="white"/>
<path d="M211.972 139.006H176.824C175.742 139.006 174.705 138.577 173.94 137.811C173.175 137.046 172.746 136.009 172.746 134.927V128.899C172.746 128.755 172.803 128.617 172.905 128.514C173.007 128.412 173.145 128.355 173.289 128.355H215.463C215.607 128.355 215.745 128.412 215.847 128.514C215.949 128.617 216.006 128.755 216.006 128.899V134.927C216.006 136.001 215.583 137.032 214.827 137.796C214.072 138.56 213.046 138.995 211.972 139.006ZM173.909 129.443V134.883C173.909 135.677 174.224 136.438 174.785 136.999C175.346 137.56 176.107 137.875 176.9 137.875H212.004C212.798 137.875 213.558 137.56 214.119 136.999C214.68 136.438 214.995 135.677 214.995 134.883V129.443H173.909Z" fill="#D1D3D4"/>
<path d="M20.3651 125.788H62.9516V144.936C62.9516 146.289 62.4143 147.587 61.4578 148.544C60.5013 149.501 59.204 150.038 57.8513 150.038H25.4655C24.1128 150.038 22.8155 149.501 21.859 148.544C20.9025 147.587 20.3651 146.289 20.3651 144.936V125.788Z" fill="white"/>
<path d="M57.8512 150.572H25.4655C23.9695 150.569 22.5355 149.973 21.4777 148.915C20.4198 147.856 19.8242 146.422 19.8214 144.925V125.777C19.8214 125.632 19.8787 125.494 19.9806 125.392C20.0826 125.29 20.2209 125.233 20.3651 125.233H62.9516C63.0958 125.233 63.2341 125.29 63.3361 125.392C63.4381 125.494 63.4954 125.632 63.4954 125.777V144.925C63.4954 146.423 62.9007 147.859 61.8422 148.918C60.7838 149.977 59.3482 150.572 57.8512 150.572ZM20.8762 126.321V144.925C20.8791 146.133 21.3601 147.291 22.214 148.145C23.0679 149 24.2253 149.481 25.4329 149.484H57.8512C59.0597 149.484 60.2187 149.003 61.0733 148.148C61.9278 147.294 62.4079 146.134 62.4079 144.925V126.321H20.8762Z" fill="#D1D3D4"/>
<path d="M41.6584 117.356C28.6084 117.356 20.3651 121.131 20.3651 125.788H62.9516C62.9516 121.131 54.6975 117.356 41.6584 117.356Z" fill="white"/>
<path d="M62.9516 126.332H20.3651C20.2209 126.332 20.0826 126.274 19.9806 126.172C19.8787 126.07 19.8214 125.932 19.8214 125.788C19.8214 120.5 28.8041 116.812 41.6584 116.812C54.5126 116.812 63.4954 120.5 63.4954 125.788C63.4954 125.932 63.4381 126.07 63.3361 126.172C63.2341 126.274 63.0958 126.332 62.9516 126.332ZM20.9524 125.244H62.3644C61.7445 121.512 54.654 117.9 41.7019 117.9C28.7497 117.9 21.5831 121.512 20.9524 125.244V125.244Z" fill="#D1D3D4"/>
<path d="M16.8416 127.615H20.3651V129.508H16.8416C16.5907 129.508 16.35 129.409 16.1726 129.231C15.9952 129.054 15.8955 128.813 15.8955 128.562V128.562C15.8955 128.311 15.9952 128.07 16.1726 127.893C16.35 127.715 16.5907 127.615 16.8416 127.615V127.615Z" fill="white"/>
<path d="M20.3651 130.052H16.8416C16.4465 130.052 16.0675 129.895 15.7881 129.616C15.5087 129.336 15.3517 128.957 15.3517 128.562C15.3517 128.167 15.5087 127.787 15.7881 127.508C16.0675 127.228 16.4465 127.071 16.8416 127.071H20.3651C20.5094 127.071 20.6477 127.129 20.7496 127.231C20.8516 127.333 20.9089 127.471 20.9089 127.615V129.508C20.9089 129.653 20.8516 129.791 20.7496 129.893C20.6477 129.995 20.5094 130.052 20.3651 130.052ZM16.8416 128.159C16.7879 128.158 16.7344 128.167 16.6843 128.187C16.6342 128.206 16.5886 128.236 16.55 128.273C16.5115 128.311 16.4809 128.356 16.46 128.405C16.4391 128.455 16.4284 128.508 16.4284 128.562C16.4312 128.67 16.476 128.772 16.5532 128.847C16.6304 128.922 16.7339 128.964 16.8416 128.964H19.8214V128.159H16.8416Z" fill="#D1D3D4"/>
<path d="M62.9516 127.615H66.4751C66.7261 127.615 66.9667 127.715 67.1441 127.893C67.3216 128.07 67.4212 128.311 67.4212 128.562V128.562C67.4212 128.813 67.3216 129.054 67.1441 129.231C66.9667 129.409 66.7261 129.508 66.4751 129.508H62.9516V127.615Z" fill="white"/>
<path d="M66.486 130.052H62.9516C62.8074 130.052 62.6691 129.995 62.5671 129.893C62.4651 129.791 62.4079 129.653 62.4079 129.508V127.615C62.4079 127.471 62.4651 127.333 62.5671 127.231C62.6691 127.129 62.8074 127.071 62.9516 127.071H66.486C66.8811 127.071 67.2601 127.228 67.5395 127.508C67.8189 127.787 67.9759 128.167 67.9759 128.562C67.9759 128.957 67.8189 129.336 67.5395 129.616C67.2601 129.895 66.8811 130.052 66.486 130.052V130.052ZM63.4954 128.964H66.486C66.5927 128.964 66.6951 128.922 66.7705 128.847C66.846 128.771 66.8884 128.669 66.8884 128.562C66.8899 128.509 66.8805 128.456 66.8608 128.406C66.8411 128.357 66.8115 128.312 66.7739 128.274C66.7362 128.236 66.6912 128.207 66.6417 128.187C66.5923 128.167 66.5392 128.158 66.486 128.159H63.4954V128.964Z" fill="#D1D3D4"/>
<path d="M47.5635 120.01H35.7641C35.6199 120.01 35.4816 119.953 35.3796 119.851C35.2776 119.749 35.2204 119.611 35.2204 119.466V117.628C35.2232 116.362 35.7271 115.149 36.6218 114.254C37.5165 113.359 38.7292 112.854 39.9945 112.852H43.3331C44.5984 112.854 45.8111 113.359 46.7058 114.254C47.6005 115.149 48.1044 116.362 48.1073 117.628V119.466C48.1073 119.611 48.05 119.749 47.948 119.851C47.846 119.953 47.7077 120.01 47.5635 120.01ZM36.3079 118.922H47.0198V117.628C47.0198 116.65 46.6313 115.711 45.94 115.02C45.2486 114.328 44.3109 113.94 43.3331 113.94H39.9945C39.0167 113.94 38.079 114.328 37.3877 115.02C36.6963 115.711 36.3079 116.65 36.3079 117.628V118.922Z" fill="#D1D3D4"/>
<g filter="url(#filter0_d_0_1)">
<path d="M22.67 300.35H13.55L11.87 305H8.99L16.55 284.21H19.7L27.23 305H24.35L22.67 300.35ZM21.89 298.13L18.11 287.57L14.33 298.13H21.89ZM33.2548 291.59C33.7948 290.65 34.5948 289.87 35.6548 289.25C36.7348 288.61 37.9848 288.29 39.4048 288.29C40.8648 288.29 42.1848 288.64 43.3648 289.34C44.5648 290.04 45.5048 291.03 46.1848 292.31C46.8648 293.57 47.2048 295.04 47.2048 296.72C47.2048 298.38 46.8648 299.86 46.1848 301.16C45.5048 302.46 44.5648 303.47 43.3648 304.19C42.1848 304.91 40.8648 305.27 39.4048 305.27C38.0048 305.27 36.7648 304.96 35.6848 304.34C34.6248 303.7 33.8148 302.91 33.2548 301.97V312.8H30.5248V288.56H33.2548V291.59ZM44.4148 296.72C44.4148 295.48 44.1648 294.4 43.6648 293.48C43.1648 292.56 42.4848 291.86 41.6248 291.38C40.7848 290.9 39.8548 290.66 38.8348 290.66C37.8348 290.66 36.9048 290.91 36.0448 291.41C35.2048 291.89 34.5248 292.6 34.0048 293.54C33.5048 294.46 33.2548 295.53 33.2548 296.75C33.2548 297.99 33.5048 299.08 34.0048 300.02C34.5248 300.94 35.2048 301.65 36.0448 302.15C36.9048 302.63 37.8348 302.87 38.8348 302.87C39.8548 302.87 40.7848 302.63 41.6248 302.15C42.4848 301.65 43.1648 300.94 43.6648 300.02C44.1648 299.08 44.4148 297.98 44.4148 296.72ZM53.5283 291.59C54.0683 290.65 54.8683 289.87 55.9283 289.25C57.0083 288.61 58.2583 288.29 59.6783 288.29C61.1383 288.29 62.4583 288.64 63.6383 289.34C64.8383 290.04 65.7783 291.03 66.4583 292.31C67.1383 293.57 67.4783 295.04 67.4783 296.72C67.4783 298.38 67.1383 299.86 66.4583 301.16C65.7783 302.46 64.8383 303.47 63.6383 304.19C62.4583 304.91 61.1383 305.27 59.6783 305.27C58.2783 305.27 57.0383 304.96 55.9583 304.34C54.8983 303.7 54.0883 302.91 53.5283 301.97V312.8H50.7983V288.56H53.5283V291.59ZM64.6883 296.72C64.6883 295.48 64.4383 294.4 63.9383 293.48C63.4383 292.56 62.7583 291.86 61.8983 291.38C61.0583 290.9 60.1283 290.66 59.1083 290.66C58.1083 290.66 57.1783 290.91 56.3183 291.41C55.4783 291.89 54.7983 292.6 54.2783 293.54C53.7783 294.46 53.5283 295.53 53.5283 296.75C53.5283 297.99 53.7783 299.08 54.2783 300.02C54.7983 300.94 55.4783 301.65 56.3183 302.15C57.1783 302.63 58.1083 302.87 59.1083 302.87C60.1283 302.87 61.0583 302.63 61.8983 302.15C62.7583 301.65 63.4383 300.94 63.9383 300.02C64.4383 299.08 64.6883 297.98 64.6883 296.72ZM78.0498 296.72C78.0498 295.04 78.3898 293.57 79.0698 292.31C79.7498 291.03 80.6798 290.04 81.8598 289.34C83.0598 288.64 84.3998 288.29 85.8798 288.29C87.1598 288.29 88.3498 288.59 89.4498 289.19C90.5498 289.77 91.3898 290.54 91.9698 291.5V282.8H94.7298V305H91.9698V301.91C91.4298 302.89 90.6298 303.7 89.5698 304.34C88.5098 304.96 87.2698 305.27 85.8498 305.27C84.3898 305.27 83.0598 304.91 81.8598 304.19C80.6798 303.47 79.7498 302.46 79.0698 301.16C78.3898 299.86 78.0498 298.38 78.0498 296.72ZM91.9698 296.75C91.9698 295.51 91.7198 294.43 91.2198 293.51C90.7198 292.59 90.0398 291.89 89.1798 291.41C88.3398 290.91 87.4098 290.66 86.3898 290.66C85.3698 290.66 84.4398 290.9 83.5998 291.38C82.7598 291.86 82.0898 292.56 81.5898 293.48C81.0898 294.4 80.8398 295.48 80.8398 296.72C80.8398 297.98 81.0898 299.08 81.5898 300.02C82.0898 300.94 82.7598 301.65 83.5998 302.15C84.4398 302.63 85.3698 302.87 86.3898 302.87C87.4098 302.87 88.3398 302.63 89.1798 302.15C90.0398 301.65 90.7198 300.94 91.2198 300.02C91.7198 299.08 91.9698 297.99 91.9698 296.75ZM114.343 296.15C114.343 296.67 114.313 297.22 114.253 297.8H101.113C101.213 299.42 101.763 300.69 102.763 301.61C103.783 302.51 105.013 302.96 106.453 302.96C107.633 302.96 108.613 302.69 109.393 302.15C110.193 301.59 110.753 300.85 111.073 299.93H114.013C113.573 301.51 112.693 302.8 111.373 303.8C110.053 304.78 108.413 305.27 106.453 305.27C104.893 305.27 103.493 304.92 102.253 304.22C101.033 303.52 100.073 302.53 99.3732 301.25C98.6732 299.95 98.3232 298.45 98.3232 296.75C98.3232 295.05 98.6632 293.56 99.3432 292.28C100.023 291 100.973 290.02 102.193 289.34C103.433 288.64 104.853 288.29 106.453 288.29C108.013 288.29 109.393 288.63 110.593 289.31C111.793 289.99 112.713 290.93 113.353 292.13C114.013 293.31 114.343 294.65 114.343 296.15ZM111.523 295.58C111.523 294.54 111.293 293.65 110.833 292.91C110.373 292.15 109.743 291.58 108.943 291.2C108.163 290.8 107.293 290.6 106.333 290.6C104.953 290.6 103.773 291.04 102.793 291.92C101.833 292.8 101.283 294.02 101.143 295.58H111.523ZM136.955 305L131.975 296.45H128.675V305H125.945V284.09H132.695C134.275 284.09 135.605 284.36 136.685 284.9C137.785 285.44 138.605 286.17 139.145 287.09C139.685 288.01 139.955 289.06 139.955 290.24C139.955 291.68 139.535 292.95 138.695 294.05C137.875 295.15 136.635 295.88 134.975 296.24L140.225 305H136.955ZM128.675 294.26H132.695C134.175 294.26 135.285 293.9 136.025 293.18C136.765 292.44 137.135 291.46 137.135 290.24C137.135 289 136.765 288.04 136.025 287.36C135.305 286.68 134.195 286.34 132.695 286.34H128.675V294.26ZM159.197 296.15C159.197 296.67 159.167 297.22 159.107 297.8H145.967C146.067 299.42 146.617 300.69 147.617 301.61C148.637 302.51 149.867 302.96 151.307 302.96C152.487 302.96 153.467 302.69 154.247 302.15C155.047 301.59 155.607 300.85 155.927 299.93H158.867C158.427 301.51 157.547 302.8 156.227 303.8C154.907 304.78 153.267 305.27 151.307 305.27C149.747 305.27 148.347 304.92 147.107 304.22C145.887 303.52 144.927 302.53 144.227 301.25C143.527 299.95 143.177 298.45 143.177 296.75C143.177 295.05 143.517 293.56 144.197 292.28C144.877 291 145.827 290.02 147.047 289.34C148.287 288.64 149.707 288.29 151.307 288.29C152.867 288.29 154.247 288.63 155.447 289.31C156.647 289.99 157.567 290.93 158.207 292.13C158.867 293.31 159.197 294.65 159.197 296.15ZM156.377 295.58C156.377 294.54 156.147 293.65 155.687 292.91C155.227 292.15 154.597 291.58 153.797 291.2C153.017 290.8 152.147 290.6 151.187 290.6C149.807 290.6 148.627 291.04 147.647 291.92C146.687 292.8 146.137 294.02 145.997 295.58H156.377ZM161.78 296.75C161.78 295.05 162.12 293.57 162.8 292.31C163.48 291.03 164.42 290.04 165.62 289.34C166.84 288.64 168.23 288.29 169.79 288.29C171.81 288.29 173.47 288.78 174.77 289.76C176.09 290.74 176.96 292.1 177.38 293.84H174.44C174.16 292.84 173.61 292.05 172.79 291.47C171.99 290.89 170.99 290.6 169.79 290.6C168.23 290.6 166.97 291.14 166.01 292.22C165.05 293.28 164.57 294.79 164.57 296.75C164.57 298.73 165.05 300.26 166.01 301.34C166.97 302.42 168.23 302.96 169.79 302.96C170.99 302.96 171.99 302.68 172.79 302.12C173.59 301.56 174.14 300.76 174.44 299.72H177.38C176.94 301.4 176.06 302.75 174.74 303.77C173.42 304.77 171.77 305.27 169.79 305.27C168.23 305.27 166.84 304.92 165.62 304.22C164.42 303.52 163.48 302.53 162.8 301.25C162.12 299.97 161.78 298.47 161.78 296.75ZM196.023 296.15C196.023 296.67 195.993 297.22 195.933 297.8H182.793C182.893 299.42 183.443 300.69 184.443 301.61C185.463 302.51 186.693 302.96 188.133 302.96C189.313 302.96 190.293 302.69 191.073 302.15C191.873 301.59 192.433 300.85 192.753 299.93H195.693C195.253 301.51 194.373 302.8 193.053 303.8C191.733 304.78 190.093 305.27 188.133 305.27C186.573 305.27 185.173 304.92 183.933 304.22C182.713 303.52 181.753 302.53 181.053 301.25C180.353 299.95 180.003 298.45 180.003 296.75C180.003 295.05 180.343 293.56 181.023 292.28C181.703 291 182.653 290.02 183.873 289.34C185.113 288.64 186.533 288.29 188.133 288.29C189.693 288.29 191.073 288.63 192.273 289.31C193.473 289.99 194.393 290.93 195.033 292.13C195.693 293.31 196.023 294.65 196.023 296.15ZM193.203 295.58C193.203 294.54 192.973 293.65 192.513 292.91C192.053 292.15 191.423 291.58 190.623 291.2C189.843 290.8 188.973 290.6 188.013 290.6C186.633 290.6 185.453 291.04 184.473 291.92C183.513 292.8 182.963 294.02 182.823 295.58H193.203ZM201.036 285.89C200.516 285.89 200.076 285.71 199.716 285.35C199.356 284.99 199.176 284.55 199.176 284.03C199.176 283.51 199.356 283.07 199.716 282.71C200.076 282.35 200.516 282.17 201.036 282.17C201.536 282.17 201.956 282.35 202.296 282.71C202.656 283.07 202.836 283.51 202.836 284.03C202.836 284.55 202.656 284.99 202.296 285.35C201.956 285.71 201.536 285.89 201.036 285.89ZM202.356 288.56V305H199.626V288.56H202.356ZM210.339 290.81V300.5C210.339 301.3 210.509 301.87 210.849 302.21C211.189 302.53 211.779 302.69 212.619 302.69H214.629V305H212.169C210.649 305 209.509 304.65 208.749 303.95C207.989 303.25 207.609 302.1 207.609 300.5V290.81H205.479V288.56H207.609V284.42H210.339V288.56H214.629V290.81H210.339ZM216.917 296.72C216.917 295.04 217.257 293.57 217.937 292.31C218.617 291.03 219.547 290.04 220.727 289.34C221.927 288.64 223.257 288.29 224.717 288.29C226.157 288.29 227.407 288.6 228.467 289.22C229.527 289.84 230.317 290.62 230.837 291.56V288.56H233.597V305H230.837V301.94C230.297 302.9 229.487 303.7 228.407 304.34C227.347 304.96 226.107 305.27 224.687 305.27C223.227 305.27 221.907 304.91 220.727 304.19C219.547 303.47 218.617 302.46 217.937 301.16C217.257 299.86 216.917 298.38 216.917 296.72ZM230.837 296.75C230.837 295.51 230.587 294.43 230.087 293.51C229.587 292.59 228.907 291.89 228.047 291.41C227.207 290.91 226.277 290.66 225.257 290.66C224.237 290.66 223.307 290.9 222.467 291.38C221.627 291.86 220.957 292.56 220.457 293.48C219.957 294.4 219.707 295.48 219.707 296.72C219.707 297.98 219.957 299.08 220.457 300.02C220.957 300.94 221.627 301.65 222.467 302.15C223.307 302.63 224.237 302.87 225.257 302.87C226.277 302.87 227.207 302.63 228.047 302.15C228.907 301.65 229.587 300.94 230.087 300.02C230.587 299.08 230.837 297.99 230.837 296.75ZM244.03 305.27C242.77 305.27 241.64 305.06 240.64 304.64C239.64 304.2 238.85 303.6 238.27 302.84C237.69 302.06 237.37 301.17 237.31 300.17H240.13C240.21 300.99 240.59 301.66 241.27 302.18C241.97 302.7 242.88 302.96 244 302.96C245.04 302.96 245.86 302.73 246.46 302.27C247.06 301.81 247.36 301.23 247.36 300.53C247.36 299.81 247.04 299.28 246.4 298.94C245.76 298.58 244.77 298.23 243.43 297.89C242.21 297.57 241.21 297.25 240.43 296.93C239.67 296.59 239.01 296.1 238.45 295.46C237.91 294.8 237.64 293.94 237.64 292.88C237.64 292.04 237.89 291.27 238.39 290.57C238.89 289.87 239.6 289.32 240.52 288.92C241.44 288.5 242.49 288.29 243.67 288.29C245.49 288.29 246.96 288.75 248.08 289.67C249.2 290.59 249.8 291.85 249.88 293.45H247.15C247.09 292.59 246.74 291.9 246.1 291.38C245.48 290.86 244.64 290.6 243.58 290.6C242.6 290.6 241.82 290.81 241.24 291.23C240.66 291.65 240.37 292.2 240.37 292.88C240.37 293.42 240.54 293.87 240.88 294.23C241.24 294.57 241.68 294.85 242.2 295.07C242.74 295.27 243.48 295.5 244.42 295.76C245.6 296.08 246.56 296.4 247.3 296.72C248.04 297.02 248.67 297.48 249.19 298.1C249.73 298.72 250.01 299.53 250.03 300.53C250.03 301.43 249.78 302.24 249.28 302.96C248.78 303.68 248.07 304.25 247.15 304.67C246.25 305.07 245.21 305.27 244.03 305.27Z" fill="white"/>
</g>
<defs>
<filter id="filter0_d_0_1" x="4.99001" y="282.17" width="249.04" height="38.63" filterUnits="userSpaceOnUse" color-interpolation-filters="sRGB">
<feFlood flood-opacity="0" result="BackgroundImageFix"/>
<feColorMatrix in="SourceAlpha" type="matrix" values="0 0 0 0 0 0 0 0 0 0 0 0 0 0 0 0 0 0 127 0" result="hardAlpha"/>
<feOffset dy="4"/>
<feGaussianBlur stdDeviation="2"/>
<feComposite in2="hardAlpha" operator="out"/>
<feColorMatrix type="matrix" values="0 0 0 0 0 0 0 0 0 0 0 0 0 0 0 0 0 0 0.25 0"/>
<feBlend mode="normal" in2="BackgroundImageFix" result="effect1_dropShadow_0_1"/>
<feBlend mode="normal" in="SourceGraphic" in2="effect1_dropShadow_0_1" result="shape"/>
</filter>
</defs>
</svg>
